<svg width="21" height="21" viewBox="0 0 21 21" fill="none" xmlns="http://www.w3.org/2000/svg">
<path d="M15.4902 14.9444V6.05556L11.0458 10.5L15.4902 14.9444ZM2.71246 20.5C2.10135 20.5 1.5782 20.2824 1.14301 19.8472C0.707827 19.412 0.490234 18.8889 0.490234 18.2778V2.72222C0.490234 2.11111 0.707827 1.58796 1.14301 1.15278C1.5782 0.717593 2.10135 0.5 2.71246 0.5H18.268C18.8791 0.5 19.4023 0.717593 19.8375 1.15278C20.2726 1.58796 20.4902 2.11111 20.4902 2.72222V18.2778C20.4902 18.8889 20.2726 19.412 19.8375 19.8472C19.4023 20.2824 18.8791 20.5 18.268 20.5H2.71246ZM6.04579 18.2778V2.72222H2.71246V18.2778H6.04579ZM8.26801 18.2778H18.268V2.72222H8.26801V18.2778Z" fill="#CFD8DD"/>
</svg>
