<svg width="21" height="21" viewBox="0 0 21 21" fill="none" xmlns="http://www.w3.org/2000/svg">
<g clip-path="url(#clip0_402_1392)">
<path d="M20.4902 10.5C20.4902 4.97715 16.0131 0.5 10.4902 0.5C4.96739 0.5 0.490234 4.97715 0.490234 10.5C0.490234 16.0228 4.96739 20.5 10.4902 20.5C16.0131 20.5 20.4902 16.0228 20.4902 10.5Z" fill="url(#paint0_linear_402_1392)"/>
<path d="M10.7948 4.50945C11.0462 3.83018 12.0069 3.83018 12.2583 4.50945L13.0319 6.59988L15.1223 7.37343C15.8016 7.62481 15.8016 8.58556 15.1223 8.83693L13.0319 9.61048L12.2583 11.7009C12.0069 12.3802 11.0462 12.3802 10.7948 11.7009L10.0213 9.61048L7.93084 8.83693C7.25157 8.58556 7.25157 7.62481 7.93084 7.37343L10.0213 6.59988L10.7948 4.50945Z" fill="white"/>
<path d="M6.24897 10.4974C6.41653 10.0445 7.05708 10.0445 7.22464 10.4974L7.74032 11.891L9.13396 12.4067C9.58683 12.5742 9.58683 13.2148 9.13396 13.3824L7.74032 13.898L7.22464 15.2917C7.05708 15.7445 6.41653 15.7445 6.24897 15.2917L5.73329 13.898L4.33965 13.3824C3.88678 13.2148 3.88678 12.5742 4.33965 12.4067L5.73329 11.891L6.24897 10.4974Z" fill="white"/>
<path d="M13.2131 13.1495C13.3387 12.8099 13.8192 12.8099 13.9449 13.1495L14.3316 14.1948L15.3768 14.5815C15.7165 14.7071 15.7165 15.1876 15.3768 15.3133L14.3316 15.7L13.9449 16.7452C13.8192 17.0849 13.3387 17.0849 13.2131 16.7452L12.8263 15.7L11.7811 15.3133C11.4415 15.1876 11.4415 14.7071 11.7811 14.5815L12.8263 14.1948L13.2131 13.1495Z" fill="white"/>
</g>
<defs>
<linearGradient id="paint0_linear_402_1392" x1="0.490234" y1="0.819939" x2="20.4902" y2="20.0833" gradientUnits="userSpaceOnUse">
<stop offset="0.575666" stop-color="#0067DF"/>
<stop offset="0.98" stop-color="#00489D"/>
</linearGradient>
<clipPath id="clip0_402_1392">
<rect width="20" height="20" fill="white" transform="translate(0.490234 0.5)"/>
</clipPath>
</defs>
</svg>
