<svg width="93" height="27" viewBox="0 0 93 27" fill="none" xmlns="http://www.w3.org/2000/svg">
<path d="M14.5647 7.71436H14.1558C13.0879 7.71436 12.4245 8.36487 12.4245 9.41177V17.8335C12.4245 21.8264 11.1855 23.455 8.14799 23.455C5.11045 23.455 3.87145 21.819 3.87145 17.8083V9.41177C3.87145 8.36488 3.20807 7.71436 2.14034 7.71436H1.73118C0.663384 7.71436 0 8.36488 0 9.41177V17.8335C0 23.916 2.74145 27.0001 8.14799 27.0001C13.5545 27.0001 16.2958 23.916 16.2958 17.8335V9.41177C16.2958 8.36488 15.6325 7.71436 14.5647 7.71436Z" fill="white"/>
<path d="M21.1885 12.8247H20.8496C19.7554 12.8247 19.0757 13.5005 19.0757 14.588V25.2367C19.0757 26.3242 19.7554 27 20.8496 27H21.1885C22.2827 27 22.9624 26.3242 22.9624 25.2367V14.588C22.9624 13.5005 22.2827 12.8247 21.1885 12.8247Z" fill="#FA4616"/>
<path d="M25.8824 6.23273C23.4092 5.84144 21.4576 3.91907 21.0604 1.48297C21.0529 1.43699 20.9924 1.43699 20.9849 1.48297C20.5877 3.91907 18.6361 5.84144 16.163 6.23273C16.1163 6.24009 16.1163 6.29973 16.163 6.3071C18.6361 6.69831 20.5877 8.62076 20.9849 11.0569C20.9924 11.1028 21.0529 11.1028 21.0604 11.0569C21.4576 8.62076 23.4092 6.69831 25.8824 6.3071C25.9291 6.29973 25.9291 6.2401 25.8824 6.23273ZM23.4525 6.28851C22.2159 6.48411 21.2401 7.44533 21.0415 8.66339C21.0378 8.68637 21.0075 8.68637 21.0038 8.66339C20.8052 7.44533 19.8294 6.48411 18.5928 6.28851C18.5694 6.28482 18.5694 6.25501 18.5928 6.25132C19.8294 6.05567 20.8052 5.09449 21.0038 3.87644C21.0075 3.85344 21.0378 3.85344 21.0415 3.87644C21.2401 5.09449 22.2159 6.05567 23.4525 6.25132C23.4759 6.25501 23.4759 6.28482 23.4525 6.28851Z" fill="#FA4616"/>
<path d="M27.3641 2.42931C26.1275 2.62492 25.1517 3.58614 24.9531 4.8042C24.9493 4.82718 24.9191 4.82718 24.9153 4.8042C24.7167 3.58614 23.7409 2.62492 22.5043 2.42931C22.481 2.42563 22.481 2.39582 22.5043 2.39213C23.7409 2.19648 24.7167 1.2353 24.9153 0.017245C24.9191 -0.00574835 24.9493 -0.00574835 24.9531 0.017245C25.1517 1.2353 26.1275 2.19648 27.3641 2.39213C27.3874 2.39582 27.3874 2.42563 27.3641 2.42931Z" fill="#FA4616"/>
<path d="M31.4601 7.71436H27.6876C26.6085 7.71436 25.938 8.37181 25.938 9.42989V25.2845C25.938 26.3426 26.6085 27.0001 27.6876 27.0001H28.1012C29.1803 27.0001 29.8508 26.3426 29.8508 25.2845V21.5316H31.4859C38.0324 21.5316 40.7028 19.5301 40.7028 14.623C40.7028 9.71588 38.0249 7.71436 31.4601 7.71436ZM36.7383 14.5723C36.7383 17.0968 35.5172 17.9486 31.8992 17.9486H29.8508V11.2212H31.8992C35.5172 11.2212 36.7383 12.0668 36.7383 14.5723Z" fill="white"/>
<path d="M55.2335 11.2827H54.9234C53.8442 11.2827 53.1739 11.9402 53.1739 12.9982V13.0004C52.0654 11.742 50.3487 11.0042 48.3864 11.0042C46.3872 11.0042 44.5795 11.7243 43.296 13.0322C41.8981 14.4565 41.1592 16.5122 41.1592 18.9768C41.1592 21.4521 41.9024 23.5196 43.3085 24.9557C44.5993 26.2739 46.4118 27 48.4123 27C50.3373 27 52.0668 26.2529 53.1752 25.0127C53.1752 25.014 53.1753 25.3702 53.1753 25.3715C53.2113 26.3786 53.8741 27 54.9234 27H55.2335C56.3127 27 56.9832 26.3427 56.9832 25.2847V12.9982C56.9832 11.9402 56.3127 11.2827 55.2335 11.2827ZM53.2513 18.9768C53.2513 21.8718 51.6743 23.6704 49.1357 23.6704C46.5653 23.6704 44.9685 21.8718 44.9685 18.9768C44.9685 16.0971 46.5455 14.3083 49.0841 14.3083C51.6155 14.3083 53.2513 16.1409 53.2513 18.9768Z" fill="white"/>
<path d="M77.7592 11.0195C75.7331 11.0195 74.2876 11.8107 73.3825 12.8078V9.43098C73.3825 8.37223 72.7117 7.71436 71.6318 7.71436H71.3216C70.2417 7.71436 69.5708 8.37223 69.5708 9.43098V25.2835C69.5708 26.3422 70.2417 27.0001 71.3216 27.0001H71.6318C72.7117 27.0001 73.3825 26.3422 73.3825 25.2835V18.921C73.3825 14.8476 75.3639 14.3766 76.8543 14.3766C79.357 14.3766 80.3778 15.5978 80.3778 18.5916V25.2835C80.3778 26.3422 81.0487 27.0001 82.1286 27.0001H82.4389C83.5187 27.0001 84.1895 26.3422 84.1895 25.2835V18.3633C84.1895 13.4216 82.0862 11.0195 77.7592 11.0195Z" fill="white"/>
<path d="M68.4746 25.0598C68.421 24.5495 68.1095 23.8206 66.6262 23.8206C64.8723 23.8206 64.0375 23.2846 64.0375 20.2391V14.3766H66.6519C67.7301 14.3766 68.3999 13.7771 68.3999 12.8122C68.3999 11.8629 67.7301 11.273 66.6519 11.273H64.0406V9.43098C64.0406 8.37223 63.3657 7.71436 62.2794 7.71436H61.9672C60.8809 7.71436 60.2059 8.37223 60.2059 9.43098V11.273H59.6049C58.6541 11.273 58.0635 11.8629 58.0635 12.8122C58.0635 13.7771 58.7333 14.3766 59.8115 14.3766H60.2059V20.5687C60.2059 25.0767 61.9948 27.0001 66.1873 27.0001C66.1942 27.0001 66.201 26.9998 66.2078 26.9997C66.4515 26.9994 66.7127 26.9957 66.9786 26.9725C67.5071 26.9233 67.9068 26.7407 68.1668 26.4288C68.4257 26.1186 68.5293 25.5734 68.4746 25.0598Z" fill="white"/>
<path d="M85.4044 11.087V8.47439H84.6532C84.3564 8.47439 84.1895 8.34139 84.1895 8.09438C84.1895 7.84736 84.3564 7.71436 84.6532 7.71436H86.9438C87.2406 7.71436 87.4075 7.84736 87.4075 8.09438C87.4075 8.34139 87.2406 8.47439 86.9438 8.47439H86.2112V11.087C86.2112 11.391 86.0721 11.562 85.8124 11.562C85.5527 11.562 85.4044 11.391 85.4044 11.087ZM87.8435 11.5714C87.5931 11.5714 87.4605 11.3805 87.5282 11.049L88.1217 8.13237C88.1774 7.85691 88.3443 7.71436 88.6225 7.71436H88.7616C89.0213 7.71436 89.1956 7.8388 89.2902 8.08474L90.2547 10.5928L91.2284 8.08474C91.3248 7.83594 91.5066 7.71436 91.7663 7.71436H91.8961C92.1743 7.71436 92.3412 7.85691 92.3969 8.13237L92.9812 11.049C93.0478 11.3815 92.9348 11.5715 92.6844 11.5715C92.4154 11.5715 92.2494 11.429 92.193 11.1535L91.7014 8.76894L90.774 11.201C90.6766 11.4556 90.5143 11.5714 90.264 11.5714C90.0043 11.5714 89.842 11.4556 89.7446 11.201L88.8172 8.76894L88.335 11.1535C88.2793 11.429 88.1125 11.5714 87.8435 11.5714Z" fill="white"/>
</svg>
