<svg width="48" height="264" viewBox="0 0 48 264" fill="none" xmlns="http://www.w3.org/2000/svg">
<mask id="path-1-inside-1_395_2278" fill="white">
<path d="M0 0H24C37.2548 0 48 10.7452 48 24V240C48 253.255 37.2548 264 24 264H0V0Z"/>
</mask>
<path d="M0 0H24C37.2548 0 48 10.7452 48 24V240C48 253.255 37.2548 264 24 264H0V0Z" fill="#222222"/>
<path d="M0 -1H24C37.8071 -1 49 10.1929 49 24H47C47 11.2975 36.7025 1 24 1H0V-1ZM49 240C49 253.807 37.8071 265 24 265H0V263H24C36.7025 263 47 252.703 47 240H49ZM0 264V0V264ZM24 -1C37.8071 -1 49 10.1929 49 24V240C49 253.807 37.8071 265 24 265V263C36.7025 263 47 252.703 47 240V24C47 11.2975 36.7025 1 24 1V-1Z" fill="url(#paint0_linear_395_2278)" fill-opacity="0.4" mask="url(#path-1-inside-1_395_2278)"/>
<rect x="8" y="16" width="32" height="32" rx="16" fill="url(#paint1_linear_395_2278)"/>
<path d="M22.3335 25.3333L23.9995 27.0002H30.6665C31.5831 27.0002 32.3333 27.7497 32.3335 28.6663V37.0002C32.3333 37.9168 31.5831 38.6663 30.6665 38.6663H17.3335C16.4169 38.6663 15.6667 37.9168 15.6665 37.0002L15.6753 27.0002C15.6753 26.0836 16.4168 25.3333 17.3335 25.3333H22.3335ZM17.3335 27.0002V37.0002H30.6665V28.6663H23.3081L21.6411 27.0002H17.3335Z" fill="#85E9FF"/>
<path d="M18.1667 72.8333H23.1667V69.5H18.1667V72.8333ZM18.1667 67.8333H29.8333V66.1667H18.1667V67.8333ZM18.1667 79.5C17.7083 79.5 17.316 79.3368 16.9896 79.0104C16.6632 78.684 16.5 78.2917 16.5 77.8333V66.1667C16.5 65.7083 16.6632 65.316 16.9896 64.9896C17.316 64.6632 17.7083 64.5 18.1667 64.5H29.8333C30.2917 64.5 30.684 64.6632 31.0104 64.9896C31.3368 65.316 31.5 65.7083 31.5 66.1667V71.4167C31.2361 71.3056 30.9618 71.2326 30.6771 71.1979C30.3924 71.1632 30.1111 71.1667 29.8333 71.2083C29.5417 71.2639 29.2604 71.3576 28.9896 71.4896C28.7187 71.6215 28.4722 71.7986 28.25 72.0208L27.4375 72.8333L23.1667 77.0833V79.5H18.1667ZM18.1667 77.8333H23.1667V74.5H18.1667V77.8333ZM24.8333 72.8333H27.4375L28.25 72.0208C28.4722 71.7986 28.7187 71.6215 28.9896 71.4896C29.2604 71.3576 29.5417 71.2639 29.8333 71.2083V69.5H24.8333V72.8333ZM24.8333 80.3333V77.7708L29.4375 73.1875C29.5625 73.0625 29.7014 72.9722 29.8542 72.9167C30.0069 72.8611 30.1597 72.8333 30.3125 72.8333C30.4792 72.8333 30.6389 72.8646 30.7917 72.9271C30.9444 72.9896 31.0833 73.0833 31.2083 73.2083L31.9792 73.9792C32.0903 74.1042 32.1771 74.2431 32.2396 74.3958C32.3021 74.5486 32.3333 74.7014 32.3333 74.8542C32.3333 75.0069 32.3056 75.1632 32.25 75.3229C32.1944 75.4826 32.1042 75.625 31.9792 75.75L27.3958 80.3333H24.8333ZM26.0833 79.0833H26.875L29.3958 76.5417L28.625 75.7708L26.0833 78.2917V79.0833ZM29.0208 76.1458L28.625 75.7708L29.3958 76.5417L29.0208 76.1458Z" fill="#A4B1B8"/>
<path d="M23.9998 116.167C24.2359 116.167 24.4339 116.087 24.5936 115.927C24.7533 115.767 24.8332 115.57 24.8332 115.333C24.8332 115.097 24.7533 114.899 24.5936 114.74C24.4339 114.58 24.2359 114.5 23.9998 114.5C23.7637 114.5 23.5658 114.58 23.4061 114.74C23.2464 114.899 23.1665 115.097 23.1665 115.333C23.1665 115.57 23.2464 115.767 23.4061 115.927C23.5658 116.087 23.7637 116.167 23.9998 116.167ZM23.1665 112.833H24.8332V107.833H23.1665V112.833ZM23.9998 120.333C22.8471 120.333 21.7637 120.115 20.7498 119.677C19.7359 119.24 18.854 118.646 18.104 117.896C17.354 117.146 16.7603 116.264 16.3228 115.25C15.8853 114.236 15.6665 113.153 15.6665 112C15.6665 110.847 15.8853 109.764 16.3228 108.75C16.7603 107.736 17.354 106.854 18.104 106.104C18.854 105.354 19.7359 104.76 20.7498 104.323C21.7637 103.885 22.8471 103.667 23.9998 103.667C25.1526 103.667 26.2359 103.885 27.2498 104.323C28.2637 104.76 29.1457 105.354 29.8957 106.104C30.6457 106.854 31.2394 107.736 31.6769 108.75C32.1144 109.764 32.3332 110.847 32.3332 112C32.3332 113.153 32.1144 114.236 31.6769 115.25C31.2394 116.264 30.6457 117.146 29.8957 117.896C29.1457 118.646 28.2637 119.24 27.2498 119.677C26.2359 120.115 25.1526 120.333 23.9998 120.333ZM23.9998 118.667C25.8609 118.667 27.4373 118.021 28.729 116.729C30.0207 115.438 30.6665 113.861 30.6665 112C30.6665 110.139 30.0207 108.563 28.729 107.271C27.4373 105.979 25.8609 105.333 23.9998 105.333C22.1387 105.333 20.5623 105.979 19.2707 107.271C17.979 108.563 17.3332 110.139 17.3332 112C17.3332 113.861 17.979 115.438 19.2707 116.729C20.5623 118.021 22.1387 118.667 23.9998 118.667Z" fill="#A4B1B8"/>
<path d="M23.1667 158.188V152.479L18.1667 149.583V155.292L23.1667 158.188ZM24.8333 158.188L29.8333 155.292V149.583L24.8333 152.479V158.188ZM24 151.042L28.9375 148.188L24 145.333L19.0625 148.188L24 151.042ZM17.3333 156.75C17.0694 156.597 16.8646 156.396 16.7188 156.146C16.5729 155.896 16.5 155.618 16.5 155.313V148.688C16.5 148.382 16.5729 148.104 16.7188 147.854C16.8646 147.604 17.0694 147.403 17.3333 147.25L23.1667 143.896C23.4306 143.743 23.7083 143.667 24 143.667C24.2917 143.667 24.5694 143.743 24.8333 143.896L30.6667 147.25C30.9306 147.403 31.1354 147.604 31.2812 147.854C31.4271 148.104 31.5 148.382 31.5 148.688V155.313C31.5 155.618 31.4271 155.896 31.2812 156.146C31.1354 156.396 30.9306 156.597 30.6667 156.75L24.8333 160.104C24.5694 160.257 24.2917 160.333 24 160.333C23.7083 160.333 23.4306 160.257 23.1667 160.104L17.3333 156.75Z" fill="#A4B1B8"/>
<path d="M18.1667 199.5C17.7083 199.5 17.316 199.337 16.9896 199.01C16.6632 198.684 16.5 198.292 16.5 197.833V186.167C16.5 185.708 16.6632 185.316 16.9896 184.99C17.316 184.663 17.7083 184.5 18.1667 184.5H29.8333C30.2917 184.5 30.684 184.663 31.0104 184.99C31.3368 185.316 31.5 185.708 31.5 186.167V187.833H29.8333V186.167H18.1667V197.833H29.8333V196.167H31.5V197.833C31.5 198.292 31.3368 198.684 31.0104 199.01C30.684 199.337 30.2917 199.5 29.8333 199.5H18.1667ZM28.1667 196.167L27 195L29.1458 192.833H21.5V191.167H29.1458L27 189L28.1667 187.833L32.3333 192L28.1667 196.167Z" fill="#A4B1B8"/>
<path d="M18.1665 240.333V224.5H31.4998L29.8332 228.667L31.4998 232.833H19.8332V240.333H18.1665ZM19.8332 231.167H29.0415L28.0415 228.667L29.0415 226.167H19.8332V231.167Z" fill="#A4B1B8"/>
<defs>
<linearGradient id="paint0_linear_395_2278" x1="27.5" y1="2.06672e-08" x2="24" y2="264" gradientUnits="userSpaceOnUse">
<stop stop-color="#333333"/>
<stop offset="0.127084" stop-color="#85E9FF"/>
<stop offset="0.254276" stop-color="#333333"/>
<stop offset="1" stop-color="#333333"/>
</linearGradient>
<linearGradient id="paint1_linear_395_2278" x1="8" y1="33.6079" x2="40" y2="30.3921" gradientUnits="userSpaceOnUse">
<stop/>
<stop offset="1"/>
</linearGradient>
</defs>
</svg>
