<svg width="506" height="58" viewBox="0 0 506 58" fill="none" xmlns="http://www.w3.org/2000/svg">
<g filter="url(#filter0_d_395_2199)">
<g clip-path="url(#clip0_395_2199)">
<rect x="5" y="1" width="496" height="48" rx="24" fill="#222222"/>
<g filter="url(#filter1_d_395_2199)">
<rect x="5" y="1" width="188" height="48" rx="24" fill="#0F0F0F" shape-rendering="crispEdges"/>
<path d="M34.5586 15.0044C35.2752 15.0045 35.9004 15.3626 36.2754 15.9126C36.517 15.8127 36.7837 15.7632 37.0586 15.7632C38.2085 15.7633 39.1416 16.6963 39.1416 17.8462V18.0796C39.2749 18.0546 39.4169 18.0376 39.5586 18.0376C40.7084 18.0377 41.6414 18.9709 41.6416 20.1206V31.6626C41.6416 33.5042 40.1502 34.9955 38.3086 34.9956H32.8496C31.9498 34.9955 31.0663 34.6211 30.4414 33.9712L24.3584 27.6294L26.083 26.104C26.5997 25.6457 27.3585 25.5544 27.9668 25.8794L29.9746 26.9458V18.9878C29.9746 17.8378 30.9086 16.9048 32.0586 16.9048C32.2002 16.9048 32.3418 16.9208 32.4834 16.9458C32.5585 15.8626 33.4587 15.0044 34.5586 15.0044ZM34.5586 16.6714C34.3254 16.6714 34.1418 16.8542 34.1416 17.0874V24.9956H32.4746V18.9878C32.4746 18.7545 32.2918 18.5709 32.0586 18.5708C31.8253 18.5708 31.6416 18.7628 31.6416 18.9878V29.7124L27.1836 27.354L26.7588 27.729L31.6416 32.813C31.9583 33.1379 32.3918 33.3296 32.8418 33.3296H38.3086C39.2252 33.3295 39.9746 32.5792 39.9746 31.6626V20.1206C39.9744 19.8876 39.7917 19.7047 39.5586 19.7046C39.3254 19.7046 39.1418 19.8875 39.1416 20.1206V24.9956H37.4746V17.8462C37.4746 17.6129 37.2918 17.4293 37.0586 17.4292C36.8253 17.4292 36.6416 17.6129 36.6416 17.8462V24.9956H34.9746V17.0874C34.9744 16.8543 34.7917 16.6715 34.5586 16.6714Z" fill="#A4B1B8"/>
<path d="M70.7778 18.7778V17H69V18.7778H70.7778Z" fill="#A4B1B8"/>
<path d="M81.4444 20.5556V22.3333H79.6667V20.5556H81.4444Z" fill="#A4B1B8"/>
<path d="M79.6667 24.1111H81.4444V27.6667H85V29.4444H81.4444V33H79.6667V29.4444H76.1111V27.6667H79.6667V24.1111Z" fill="#A4B1B8"/>
<path d="M74.3333 29.4444V27.6667H72.5556V29.4444H74.3333Z" fill="#A4B1B8"/>
<path d="M70.7778 27.6667V29.4444H69V27.6667H70.7778Z" fill="#A4B1B8"/>
<path d="M70.7778 25.8889V24.1111H69V25.8889H70.7778Z" fill="#A4B1B8"/>
<path d="M70.7778 20.5556V22.3333H69V20.5556H70.7778Z" fill="#A4B1B8"/>
<path d="M74.3333 17V18.7778H72.5556V17H74.3333Z" fill="#A4B1B8"/>
<path d="M77.8889 18.7778V17H76.1111V18.7778H77.8889Z" fill="#A4B1B8"/>
<path d="M81.4444 17V18.7778H79.6667V17H81.4444Z" fill="#A4B1B8"/>
<path d="M114 30.59L124.59 20H118V18H128V28H126V21.41L115.41 32L114 30.59Z" fill="#A4B1B8"/>
<path d="M167.987 20.9043L164.195 24.6123V21.3535C161.829 21.7536 160.029 23.8044 160.029 26.2793C160.029 28.754 161.829 30.804 164.195 31.2041V32.8877C160.904 32.4793 158.362 29.6791 158.362 26.2793C158.362 22.8794 160.912 20.0794 164.195 19.6709V17.1123L167.987 20.9043ZM169.112 31.5371C168.146 32.2871 167.021 32.7372 165.862 32.8789V31.1953C166.587 31.0786 167.287 30.7869 167.912 30.3369L169.112 31.5371ZM171.638 27.1123C171.496 28.2706 171.037 29.3869 170.287 30.3535L169.104 29.1787C169.554 28.5454 169.837 27.8373 169.954 27.1123H171.638ZM170.287 22.2041C171.037 23.1707 171.496 24.2871 171.638 25.4453H169.954C169.837 24.7204 169.553 24.0126 169.104 23.3877L170.287 22.2041Z" fill="#A4B1B8"/>
</g>
<g clip-path="url(#clip1_395_2199)">
<circle cx="223" cy="25" r="9" stroke="#A4B1B8" stroke-width="2"/>
</g>
<path d="M272.293 16.1211C272.659 15.7552 273.238 15.7326 273.631 16.0527L273.707 16.1211L281.879 24.293C282.245 24.659 282.267 25.2381 281.947 25.6309L281.879 25.707L273.707 33.8789C273.341 34.2448 272.762 34.2674 272.369 33.9473L272.293 33.8789L264.121 25.707C263.755 25.341 263.733 24.7619 264.053 24.3691L264.121 24.293L272.293 16.1211Z" stroke="#A4B1B8" stroke-width="2"/>
<path d="M270.086 28.42L269.5 27.8336L272.374 24.96L269.5 22.0864L269.793 21.7932L270.086 21.5L272.96 24.3735L275.834 21.5L276.42 22.0864L273.546 24.96L276.42 27.8336L275.834 28.42L272.96 25.5465L270.086 28.42Z" fill="#A4B1B8" stroke="#A4B1B8" stroke-width="0.75" stroke-linejoin="round"/>
<rect x="314" y="18" width="18" height="14" rx="1" stroke="#A4B1B8" stroke-width="2"/>
<g clip-path="url(#clip2_395_2199)">
<circle cx="373" cy="25" r="8.5" stroke="#A4B1B8" stroke-width="3"/>
</g>
<path d="M425.223 31.6665C425.223 32.8938 424.227 33.8887 423 33.8887C421.773 33.8887 420.777 32.8938 420.777 31.6665C420.777 30.4392 421.773 29.4443 423 29.4443C424.227 29.4443 425.223 30.4392 425.223 31.6665ZM425.223 25C425.223 26.2275 424.228 27.2227 423 27.2227C421.772 27.2227 420.777 26.2275 420.777 25C420.777 23.7725 421.772 22.7773 423 22.7773C424.228 22.7773 425.223 23.7725 425.223 25ZM425.223 18.3335C425.223 19.5608 424.227 20.5557 423 20.5557C421.773 20.5557 420.777 19.5608 420.777 18.3335C420.777 17.1062 421.773 16.1113 423 16.1113C424.227 16.1113 425.223 17.1062 425.223 18.3335Z" fill="#A4B1B8"/>
<path d="M477.863 18.225L476.379 16.75L468.138 25L476.388 33.25L477.863 31.775L471.088 25L477.863 18.225Z" fill="#A4B1B8"/>
</g>
<rect x="4.5" y="0.5" width="497" height="49" rx="24.5" stroke="url(#paint0_linear_395_2199)"/>
</g>
<defs>
<filter id="filter0_d_395_2199" x="0" y="0" width="506" height="58" filterUnits="userSpaceOnUse" color-interpolation-filters="sRGB">
<feFlood flood-opacity="0" result="BackgroundImageFix"/>
<feColorMatrix in="SourceAlpha" type="matrix" values="0 0 0 0 0 0 0 0 0 0 0 0 0 0 0 0 0 0 127 0" result="hardAlpha"/>
<feOffset dy="4"/>
<feGaussianBlur stdDeviation="2"/>
<feComposite in2="hardAlpha" operator="out"/>
<feColorMatrix type="matrix" values="0 0 0 0 0 0 0 0 0 0 0 0 0 0 0 0 0 0 0.1 0"/>
<feBlend mode="normal" in2="BackgroundImageFix" result="effect1_dropShadow_395_2199"/>
<feBlend mode="normal" in="SourceGraphic" in2="effect1_dropShadow_395_2199" result="shape"/>
</filter>
<filter id="filter1_d_395_2199" x="-15" y="-15" width="228" height="88" filterUnits="userSpaceOnUse" color-interpolation-filters="sRGB">
<feFlood flood-opacity="0" result="BackgroundImageFix"/>
<feColorMatrix in="SourceAlpha" type="matrix" values="0 0 0 0 0 0 0 0 0 0 0 0 0 0 0 0 0 0 127 0" result="hardAlpha"/>
<feOffset dy="4"/>
<feGaussianBlur stdDeviation="10"/>
<feComposite in2="hardAlpha" operator="out"/>
<feColorMatrix type="matrix" values="0 0 0 0 0 0 0 0 0 0 0 0 0 0 0 0 0 0 0.1 0"/>
<feBlend mode="normal" in2="BackgroundImageFix" result="effect1_dropShadow_395_2199"/>
<feBlend mode="normal" in="SourceGraphic" in2="effect1_dropShadow_395_2199" result="shape"/>
</filter>
<linearGradient id="paint0_linear_395_2199" x1="183" y1="-31.5" x2="277.5" y2="75.5" gradientUnits="userSpaceOnUse">
<stop stop-color="#333333"/>
<stop offset="1" stop-color="#222222"/>
</linearGradient>
<clipPath id="clip0_395_2199">
<rect x="5" y="1" width="496" height="48" rx="24" fill="white"/>
</clipPath>
<clipPath id="clip1_395_2199">
<rect width="24" height="24" fill="white" transform="translate(211 13)"/>
</clipPath>
<clipPath id="clip2_395_2199">
<rect width="24" height="24" fill="white" transform="translate(361 13)"/>
</clipPath>
</defs>
</svg>
